# xmcd
#
# Track frame offsets:
#	150
#	14548
#	27633
#	41780
#	60296
#	80052
#	92069
#	108658
#	122449
#	141540
#	156342
#	171656
#	191982
#	206210
#	223292
#	244858
#	259841
#	275488
#	288622
#	307018
#	319303
#	331634
#
# Disc length: 4668 seconds
# Revision: 0
# Processed by: cddbd v1.5.2PL0 Copyright (c) Steve Scherf et al.
# Submitted via: dBpowerAMP V12.0
#
DISCID=69123a16
DTITLE=Various Artist - CRS198
DYEAR=2017
DGENRE=Country
TTITLE0=Darren Coggan - The Wide Horizon
TTITLE1=Tracey Davis and Chris Haigh - That's The Way Love Goes
TTITLE2=Dale Duncan - The Hand That Held The Reins
TTITLE3=The Long And Short Of It - Gypsy White Moon
TTITLE4=LeAnne King - Put Your Hand In Mine
TTITLE5=Dean Perrett - Cobar Line
TTITLE6=Allan Caswell - Hero Just The Same
TTITLE7=Emma Jene - Yahoo
TTITLE8=Brendan Smoother - Behind The Seen
TTITLE9=Sharon Benjamin - Big White Volvo
TTITLE10=Ian Burns - Want To Sing
TTITLE11=Paul Crowder - Bricks And Mortar
TTITLE12=Vanessa Bourne  - I Would Love To Dance Again
TTITLE13=Chris Williams - Speed of Light
TTITLE14=Ray Macartney - That's My Country
TTITLE15=Rory Ellis - Livin' The Dream
TTITLE16=Gina Timms - Thank You
TTITLE17=Wayne Johnston - Heartache On The Run
TTITLE18=Phil Doublet - The Day The Spire Fell
TTITLE19=The Farmer and Adele - Saddle Up Song
TTITLE20=Binda Warren - Tailgater 
TTITLE21=Thor Phillips - Roll Down The Windows
EXTD=
EXTT0=
EXTT1=
EXTT2=
EXTT3=
EXTT4=
EXTT5=
EXTT6=
EXTT7=
EXTT8=
EXTT9=
EXTT10=
EXTT11=
EXTT12=
EXTT13=
EXTT14=
EXTT15=
EXTT16=
EXTT17=
EXTT18=
EXTT19=
EXTT20=
EXTT21=
PLAYORDER=
